<?xml version="1.0" standalone="no"?>
<!DOCTYPE svg PUBLIC "-//W3C//DTD SVG 20010904//EN"
 "http://www.w3.org/TR/2001/REC-SVG-20010904/DTD/svg10.dtd">
<svg version="1.0" xmlns="http://www.w3.org/2000/svg"
 width="946.000000pt" height="249.000000pt" viewBox="0 0 946.000000 249.000000"
 preserveAspectRatio="xMidYMid meet">

<g transform="translate(0.000000,249.000000) scale(0.100000,-0.100000)"
fill="#fff" stroke="none">
<path d="M139 2443 c-40 -21 -61 -40 -84 -77 l-30 -49 0 -1077 0 -1077 30 -48
c22 -36 45 -57 84 -77 l53 -28 938 0 938 0 53 28 c39 20 62 41 84 77 l30 48 0
1077 0 1077 -30 49 c-23 37 -44 56 -84 77 l-55 27 -936 0 -936 0 -55 -27z
m1943 -122 l33 -29 0 -1052 0 -1052 -33 -29 -32 -29 -920 0 -920 0 -32 29 -33
29 0 1052 0 1052 33 29 32 29 920 0 920 0 32 -29z"/>
<path d="M580 1570 c0 -291 1 -530 3 -530 2 0 53 22 113 49 201 90 376 138
539 148 107 7 154 -8 185 -59 19 -32 20 -49 20 -415 l0 -383 120 0 121 0 -3
417 -3 418 -27 57 c-54 115 -161 190 -294 207 -116 14 -363 -18 -495 -64 l-39
-14 0 349 0 350 -120 0 -120 0 0 -530z"/>
<path d="M1420 2029 c-30 -98 -61 -166 -114 -249 -25 -39 -46 -73 -46 -75 0
-3 54 -5 119 -5 l120 0 28 34 c70 86 153 268 153 339 l0 27 -119 0 -119 0 -22
-71z"/>
<path d="M580 626 c0 -187 3 -236 13 -230 6 5 67 57 135 118 117 104 122 110
105 126 -20 20 -209 186 -235 208 -17 14 -18 3 -18 -222z"/>
<path opacity="0.6" d="M2800 1240 l0 -860 120 0 120 0 0 465 0 464 28 15 c44 23 178 54 283
67 111 13 162 0 179 -46 6 -16 10 -209 10 -496 l0 -469 120 0 121 0 -3 508
c-3 491 -4 508 -24 553 -86 186 -286 213 -691 93 l-23 -6 0 286 0 286 -120 0
-120 0 0 -860z"/>
<path opacity="0.6" d="M7240 1240 l0 -860 120 0 120 0 0 275 0 275 98 0 97 -1 56 -77 c81
-111 186 -274 244 -380 l50 -92 128 0 c70 0 127 3 127 6 0 4 -30 61 -67 128
-80 147 -193 322 -280 434 l-64 83 74 102 c138 190 262 391 282 455 l6 22
-125 0 -126 0 -41 -82 c-54 -108 -127 -224 -202 -325 l-62 -83 -97 0 -98 0 0
490 0 490 -120 0 -120 0 0 -860z"/>
<path opacity="0.6" d="M4315 1599 c-100 -10 -263 -48 -280 -65 -15 -16 -40 -147 -56 -294
-15 -139 -6 -463 15 -548 45 -178 141 -271 312 -303 76 -14 268 -6 359 16 105
25 255 86 255 104 0 36 -34 171 -43 171 -6 0 -52 -14 -104 -30 -190 -61 -372
-75 -455 -36 -64 30 -88 89 -103 244 l-7 72 371 0 371 0 0 130 c0 321 -92 485
-300 534 -70 17 -202 19 -335 5z m321 -226 c51 -26 92 -103 101 -190 l6 -63
-266 0 -266 0 4 28 c2 15 7 71 11 125 7 111 -4 102 129 117 126 14 235 7 281
-17z"/>
<path opacity="0.6" d="M5705 1603 c-145 -13 -344 -69 -482 -134 l-83 -40 0 -524 0 -525 125
0 125 0 0 464 0 465 57 21 c85 32 177 51 278 58 l90 7 3 108 3 107 -38 -2
c-21 -1 -56 -3 -78 -5z"/>
<path  opacity="0.6" d="M6354 1596 c-200 -38 -329 -163 -386 -373 -27 -103 -30 -349 -4 -462
58 -259 228 -381 528 -381 292 1 465 127 535 390 25 93 25 378 0 470 -51 189
-148 295 -316 342 -87 25 -264 32 -357 14z m284 -203 c61 -29 100 -76 133
-162 30 -77 39 -313 15 -414 -41 -173 -131 -251 -291 -252 -148 0 -232 63
-278 209 -18 60 -22 94 -22 216 0 165 20 252 74 327 76 105 238 138 369 76z"/>
<path opacity="0.6" d="M8472 1113 c3 -493 3 -499 26 -555 30 -73 88 -131 160 -159 51 -19
70 -21 182 -16 180 8 377 61 564 153 l56 27 0 524 0 523 -125 0 -125 0 0 -464
0 -465 -57 -21 c-106 -40 -206 -61 -301 -63 -144 -3 -132 -51 -132 529 l0 484
-125 0 -126 0 3 -497z"/>
</g>
</svg>
