<?xml version="1.0" standalone="no"?>
<!DOCTYPE svg PUBLIC "-//W3C//DTD SVG 20010904//EN"
 "http://www.w3.org/TR/2001/REC-SVG-20010904/DTD/svg10.dtd">
<svg version="1.0" xmlns="http://www.w3.org/2000/svg"
 width="491.000000pt" height="480.000000pt" viewBox="0 0 491.000000 480.000000"
 preserveAspectRatio="xMidYMid meet">

<g transform="translate(0.000000,480.000000) scale(0.100000,-0.100000)"
fill="#000000" stroke="none">
<path d="M2244 4280 c-109 -55 -190 -98 -179 -95 109 25 150 34 153 31 2 -2
-51 -31 -117 -65 -67 -34 -121 -63 -121 -65 0 -4 198 48 244 64 75 26 36 1
-134 -85 -102 -52 -183 -94 -180 -94 3 -1 95 28 205 64 109 35 201 63 202 61
3 -3 -210 -109 -356 -177 -50 -23 -90 -44 -88 -46 2 -2 109 33 237 77 128 44
235 78 238 75 3 -3 3 -5 0 -5 -7 0 -530 -248 -536 -255 -7 -7 55 16 358 130
113 43 212 79 220 82 23 6 -131 -71 -402 -202 -136 -65 -246 -120 -245 -122 2
-1 62 20 133 48 350 138 556 217 548 210 -5 -4 -172 -86 -371 -182 -199 -95
-361 -175 -359 -176 1 -1 71 25 156 58 503 195 593 229 596 226 2 -1 -128 -66
-289 -142 -314 -151 -511 -248 -487 -241 8 2 197 76 419 165 222 89 405 160
407 159 1 -2 -182 -90 -407 -197 -225 -107 -408 -196 -406 -197 2 -2 178 66
392 151 213 86 390 154 392 152 2 -2 -90 -48 -204 -102 -115 -53 -290 -136
-390 -183 -101 -47 -181 -87 -180 -88 2 -2 194 73 427 166 233 94 425 169 426
167 2 -2 -195 -97 -436 -212 -242 -114 -439 -210 -437 -211 2 -2 107 37 233
87 126 49 276 109 334 131 58 23 154 61 214 85 60 23 111 41 113 40 2 -2 -68
-37 -154 -77 -87 -41 -216 -101 -288 -135 -71 -34 -192 -90 -267 -125 -76 -35
-136 -65 -135 -67 2 -1 201 76 442 172 241 96 440 173 442 172 1 -2 -66 -35
-150 -74 -505 -235 -697 -326 -693 -330 2 -2 41 12 87 31 253 104 812 326 814
324 2 -2 -60 -33 -138 -69 -78 -36 -276 -129 -439 -205 -163 -76 -296 -139
-294 -141 1 -1 204 78 451 177 247 99 450 179 451 177 2 -1 -188 -94 -421
-207 -234 -112 -424 -205 -422 -206 1 -2 194 74 427 167 234 94 436 175 450
180 88 35 -48 -33 -403 -201 -224 -106 -406 -195 -404 -196 2 -2 194 73 427
166 233 93 425 168 427 166 2 -1 -190 -95 -426 -207 -236 -112 -429 -205 -427
-206 1 -1 199 76 440 173 241 96 440 173 442 171 2 -2 -144 -73 -324 -158
-363 -171 -460 -217 -451 -218 4 -1 647 258 788 317 9 3 12 1 7 -6 -4 -7 -11
-12 -16 -12 -4 0 -117 -53 -251 -118 -134 -65 -299 -145 -367 -177 -67 -32
-121 -60 -119 -62 2 -1 143 51 313 118 401 157 441 172 429 161 -6 -5 -164
-82 -352 -172 -188 -90 -341 -165 -339 -167 2 -3 227 84 535 207 69 28 126 48
128 47 3 -4 -246 -128 -470 -235 -75 -36 -136 -66 -134 -68 1 -2 133 46 292
107 159 60 291 109 294 108 4 0 -104 -56 -239 -124 -135 -68 -242 -124 -238
-124 4 -1 31 8 60 18 211 78 421 151 424 148 3 -2 -22 -16 -53 -30 -89 -40
-391 -189 -368 -181 11 3 105 35 209 70 104 35 191 62 194 60 2 -3 -88 -50
-200 -106 -194 -97 -230 -117 -198 -106 271 88 333 107 337 103 2 -3 -79 -47
-181 -98 -102 -52 -184 -95 -182 -96 1 -2 25 4 51 12 27 8 51 13 53 11 1 -2
-41 -27 -95 -55 -102 -54 -98 -56 40 -23 42 11 77 18 77 16 0 -3 -117 -61
-260 -131 -143 -69 -259 -127 -257 -129 1 -1 97 30 212 70 282 98 282 98 105
6 -85 -44 -146 -78 -135 -75 21 5 289 88 338 105 53 18 26 -1 -90 -60 -65 -33
-107 -58 -94 -54 13 3 84 24 159 45 75 21 137 37 140 35 2 -2 -37 -25 -88 -51
-50 -26 -89 -49 -87 -51 2 -2 64 14 138 35 74 22 136 38 138 36 1 -2 -37 -24
-85 -49 -49 -25 -85 -45 -80 -45 5 -1 67 15 138 35 72 19 132 33 135 30 3 -2
-21 -18 -53 -35 -33 -17 -66 -35 -74 -41 -18 -14 -20 -14 125 24 55 15 109 29
120 32 11 2 -14 -13 -55 -36 l-75 -40 45 6 c25 4 74 12 110 19 36 8 66 12 68
10 2 -2 -15 -13 -37 -26 -23 -12 -39 -24 -38 -25 2 -2 54 7 117 20 107 22 113
23 91 5 l-23 -19 38 0 c22 0 55 4 74 9 19 5 53 12 75 16 l40 7 -32 13 c-17 7
-67 19 -110 26 -43 7 -125 32 -183 54 -58 23 -130 48 -160 54 -91 20 -211 73
-229 100 -9 14 -19 55 -23 91 -3 36 -9 76 -13 90 -6 23 -3 26 37 37 24 6 112
35 197 64 l154 54 98 122 c55 67 99 128 99 135 0 7 13 38 30 68 16 30 29 63
30 74 0 22 31 75 75 131 29 36 33 50 40 135 16 179 15 182 -75 296 -39 49 -75
105 -81 124 -14 44 -73 154 -108 200 -14 19 -36 55 -49 80 -36 72 -197 232
-270 269 -34 17 -72 31 -84 31 -13 0 -47 14 -77 30 -30 17 -62 30 -71 30 -9 0
-25 7 -36 15 -10 8 -26 15 -35 15 -8 0 -105 -45 -215 -100z m261 -580 c-3 -5
-12 -10 -18 -10 -7 0 -6 4 3 10 19 12 23 12 15 0z"/>
<path d="M1880 2920 c-8 -5 -10 -10 -5 -10 6 0 17 5 25 10 8 5 11 10 5 10 -5
0 -17 -5 -25 -10z"/>
<path d="M1460 1800 l0 -50 980 0 980 0 0 50 0 50 -980 0 -980 0 0 -50z"/>
<path d="M1330 1565 c0 -107 13 -125 93 -125 80 0 97 22 97 128 l0 82 -30 0
-30 0 0 -79 c0 -69 -3 -80 -19 -86 -42 -13 -51 2 -51 86 l0 79 -30 0 -30 0 0
-85z"/>
<path d="M1570 1545 l0 -105 30 0 c28 0 29 1 32 57 l3 57 38 -57 c31 -48 42
-57 67 -57 l30 0 0 105 0 105 -30 0 c-28 0 -29 -1 -32 -57 l-3 -58 -39 58
c-32 47 -44 57 -67 57 l-29 0 0 -105z"/>
<path d="M1820 1545 l0 -105 30 0 30 0 0 105 0 105 -30 0 -30 0 0 -105z"/>
<path d="M1931 1598 c12 -29 30 -77 41 -105 18 -49 22 -53 52 -53 33 0 34 1
70 96 20 53 36 100 36 105 0 5 -13 9 -28 9 -27 0 -30 -4 -51 -75 -12 -41 -24
-75 -26 -75 -2 0 -14 34 -26 75 -22 74 -23 75 -55 75 l-34 0 21 -52z"/>
<path d="M2160 1545 l0 -105 85 0 c78 0 85 2 85 20 0 18 -7 20 -55 20 -52 0
-55 1 -55 25 0 23 3 25 50 25 43 0 50 3 50 20 0 17 -7 20 -50 20 -43 0 -50 3
-50 20 0 18 7 20 55 20 48 0 55 2 55 20 0 18 -7 20 -85 20 l-85 0 0 -105z"/>
<path d="M2380 1545 l0 -105 30 0 c29 0 30 2 30 45 0 54 15 52 48 -5 18 -33
28 -40 52 -40 17 0 30 5 30 10 0 13 -31 62 -45 72 -6 5 -1 14 13 24 17 12 22
24 20 47 -4 41 -35 57 -115 57 l-63 0 0 -105z m115 40 c0 -14 -8 -21 -27 -23
-24 -3 -28 0 -28 23 0 23 4 26 28 23 19 -2 27 -9 27 -23z"/>
<path d="M2620 1630 c-11 -11 -20 -29 -20 -39 0 -24 41 -57 81 -66 34 -8 49
-32 28 -46 -20 -13 -27 -11 -46 11 -23 26 -63 27 -63 1 0 -30 39 -51 92 -51
54 0 88 24 88 63 0 34 -12 46 -66 66 -27 11 -49 25 -49 32 0 19 21 22 38 4 20
-19 67 -20 67 -1 0 44 -113 63 -150 26z"/>
<path d="M2820 1545 l0 -105 30 0 30 0 0 105 0 105 -30 0 -30 0 0 -105z"/>
<path d="M2930 1545 l0 -107 76 4 c65 3 79 7 95 27 28 35 26 112 -5 148 -21
24 -32 28 -95 31 l-71 4 0 -107z m118 43 c7 -7 12 -29 12 -50 0 -28 -5 -40
-21 -48 -36 -20 -49 -6 -49 55 0 51 2 55 23 55 13 0 28 -5 35 -12z"/>
<path d="M3206 1642 c-3 -5 -18 -44 -34 -88 -16 -43 -33 -87 -37 -96 -6 -15
-2 -18 25 -18 23 0 33 5 37 20 4 15 14 20 39 20 23 0 38 -6 46 -20 14 -22 73
-29 66 -7 -68 191 -71 197 -105 197 -17 0 -34 -4 -37 -8z m53 -109 c1 -7 -8
-13 -19 -13 -23 0 -24 8 -9 47 l12 28 7 -25 c5 -14 8 -31 9 -37z"/>
<path d="M3380 1546 l0 -106 66 0 c60 0 68 3 96 30 28 28 30 35 26 81 -7 74
-30 92 -118 97 l-70 4 0 -106z m118 42 c13 -13 16 -66 4 -85 -4 -6 -20 -15
-35 -18 l-27 -7 0 61 c0 57 2 61 23 61 13 0 28 -5 35 -12z"/>
<path d="M2994 1280 c-35 -14 -54 -50 -54 -103 0 -74 39 -105 125 -98 70 6
105 78 75 156 -16 43 -93 66 -146 45z m84 -52 c15 -15 16 -63 2 -89 -12 -21
-50 -25 -68 -7 -16 16 -16 80 0 96 7 7 21 12 33 12 12 0 26 -5 33 -12z"/>
<path d="M3744 1276 c-22 -10 -36 -25 -44 -51 -32 -96 38 -170 136 -143 46 12
64 42 64 103 0 41 -5 56 -24 74 -30 28 -91 36 -132 17z m84 -48 c16 -16 16
-80 0 -96 -31 -31 -78 -3 -78 48 0 51 47 79 78 48z"/>
<path d="M781 1228 c12 -29 28 -73 38 -98 15 -41 20 -45 54 -48 20 -2 37 -1
37 1 0 3 16 48 35 101 l35 96 -30 0 c-27 0 -30 -4 -51 -70 -13 -39 -26 -67
-29 -63 -4 5 -15 36 -25 71 -18 60 -19 62 -51 62 l-34 0 21 -52z"/>
<path d="M1039 1253 c-40 -105 -59 -157 -59 -164 0 -5 14 -9 30 -9 20 0 30 5
30 15 0 11 11 15 40 15 27 0 43 -5 46 -15 7 -16 64 -21 64 -6 0 5 -13 42 -29
83 -15 40 -31 81 -34 91 -5 12 -17 17 -42 17 -29 0 -37 -5 -46 -27z m70 -95
c1 -5 -10 -8 -24 -8 -28 0 -30 4 -13 51 l11 33 13 -34 c7 -19 13 -38 13 -42z"/>
<path d="M1220 1180 l0 -100 80 0 c79 0 80 0 80 25 0 23 -3 25 -50 25 l-50 0
0 75 0 75 -30 0 -30 0 0 -100z"/>
<path d="M1420 1180 l0 -100 80 0 c79 0 80 0 80 25 0 23 -3 25 -50 25 l-50 0
0 75 0 75 -30 0 -30 0 0 -100z"/>
<path d="M1610 1180 l0 -100 90 0 c83 0 90 1 90 20 0 18 -7 20 -55 20 -52 0
-55 1 -55 25 0 23 3 25 50 25 43 0 50 3 50 20 0 17 -7 20 -50 20 -37 0 -50 4
-50 14 0 11 15 16 52 18 41 2 54 7 56 21 3 15 -6 17 -87 17 l-91 0 0 -100z"/>
<path d="M1930 1180 l0 -100 64 0 c76 0 112 22 122 75 7 42 -11 102 -36 115
-10 6 -48 10 -84 10 l-66 0 0 -100z m120 41 c24 -46 2 -101 -41 -101 -17 0
-19 7 -19 60 0 57 1 60 25 60 14 0 29 -8 35 -19z"/>
<path d="M2160 1180 l0 -100 85 0 c78 0 85 2 85 20 0 18 -7 20 -55 20 -52 0
-55 1 -55 25 0 23 3 25 50 25 43 0 50 3 50 20 0 17 -7 20 -50 20 -37 0 -50 4
-50 14 0 11 15 16 52 18 41 2 54 7 56 21 3 15 -6 17 -82 17 l-86 0 0 -100z"/>
<path d="M2370 1180 l0 -100 80 0 c79 0 80 0 80 25 0 23 -3 25 -50 25 l-50 0
0 75 0 75 -30 0 -30 0 0 -100z"/>
<path d="M2660 1180 l0 -100 25 0 c24 0 25 2 25 77 0 42 3 74 6 70 3 -3 14
-36 24 -74 15 -59 21 -68 42 -71 22 -3 26 3 44 75 l19 78 3 -77 c3 -75 4 -78
27 -78 25 0 25 0 25 100 l0 100 -43 0 -44 0 -12 -55 c-7 -30 -16 -55 -21 -55
-4 0 -11 17 -14 38 -13 71 -14 72 -62 72 l-44 0 0 -100z"/>
<path d="M3190 1181 l0 -101 25 0 c24 0 25 2 26 78 l1 77 20 -77 c18 -69 23
-78 44 -78 18 0 25 8 33 38 29 113 29 112 30 35 1 -71 2 -73 26 -73 l25 0 0
100 0 100 -39 0 c-29 0 -41 -5 -45 -17 -3 -10 -10 -38 -17 -63 l-12 -45 -17
60 -17 60 -41 3 -42 3 0 -100z"/>
<path d="M3470 1180 l0 -100 78 0 c64 0 82 4 95 18 23 25 21 58 -3 75 -18 13
-19 16 -5 27 18 15 20 51 3 68 -7 7 -43 12 -90 12 l-78 0 0 -100z m115 45 c0
-14 -8 -21 -27 -23 -24 -3 -28 0 -28 23 0 23 4 26 28 23 19 -2 27 -9 27 -23z
m4 -64 c23 -15 5 -41 -29 -41 -25 0 -30 4 -30 25 0 19 5 25 23 25 12 0 28 -4
36 -9z"/>
<path d="M3937 1238 c15 -24 33 -50 40 -59 7 -8 13 -34 13 -57 0 -40 1 -42 30
-42 29 0 30 2 30 45 0 36 8 57 35 98 l35 52 -32 3 c-18 2 -34 -1 -36 -7 -2 -6
-12 -21 -21 -33 l-18 -21 -19 31 c-15 26 -25 32 -51 32 l-33 0 27 -42z"/>
</g>
</svg>
